<?xml version="1.0" encoding="UTF-8" ?>
<!DOCTYPE svg PUBLIC "-//W3C//DTD SVG 1.1//EN" "http://www.w3.org/Graphics/SVG/1.1/DTD/svg11.dtd">
<svg width="447pt" height="78pt" viewBox="0 0 447 78" version="1.1" xmlns="http://www.w3.org/2000/svg">
<g id="#000000ff">
<path fill="#000000" opacity="1.00" d=" M 191.26 4.24 C 196.23 2.70 201.59 7.95 200.06 12.98 C 199.04 18.91 190.09 20.13 187.13 15.07 C 184.19 11.21 186.93 5.57 191.26 4.24 Z" />
<path fill="#000000" opacity="1.00" d=" M 252.16 5.02 C 256.41 4.96 260.66 4.96 264.92 5.04 C 264.97 11.45 264.96 17.87 264.93 24.28 C 269.71 19.30 277.59 19.04 283.75 21.27 C 289.24 23.14 291.95 29.07 292.43 34.49 C 293.23 42.30 292.63 50.17 292.81 58.00 C 288.55 58.02 284.28 58.02 280.02 58.00 C 279.96 51.62 280.13 45.24 279.96 38.86 C 279.95 36.12 278.98 33.52 277.63 31.16 C 275.28 30.34 272.71 29.34 270.24 30.31 C 266.84 31.65 265.42 35.52 265.06 38.88 C 264.77 45.25 265.04 51.63 264.95 58.00 C 260.68 58.02 256.41 58.02 252.15 58.00 C 252.16 40.34 252.11 22.68 252.16 5.02 Z" />
<path fill="#000000" opacity="1.00" d=" M 397.22 5.04 C 401.48 4.96 405.74 4.97 410.00 5.00 C 410.03 22.67 410.01 40.34 410.01 58.01 C 405.84 58.02 401.67 58.02 397.50 58.01 C 397.55 57.11 397.65 55.32 397.70 54.42 C 389.45 62.88 373.09 59.09 368.56 48.40 C 366.34 43.76 366.50 38.28 367.56 33.36 C 370.99 21.44 387.55 15.77 397.28 23.70 C 397.11 17.48 397.20 11.26 397.22 5.04 M 386.28 30.37 C 379.83 31.59 378.29 39.90 380.96 44.97 C 384.38 51.08 395.47 50.09 397.05 43.01 C 397.57 39.21 398.04 34.15 394.38 31.70 C 392.01 30.26 388.99 29.61 386.28 30.37 Z" />
<path fill="#000000" opacity="1.00" d=" M 18.06 14.94 C 27.59 15.01 37.13 14.89 46.66 15.01 C 49.52 19.95 52.29 24.95 55.28 29.82 C 58.26 24.92 60.80 19.75 64.06 15.03 C 73.58 15.15 83.11 14.96 92.64 15.13 C 97.44 23.46 102.23 31.79 107.08 40.10 C 102.26 48.37 97.49 56.67 92.74 64.98 C 83.20 65.14 73.65 64.98 64.11 65.07 C 60.69 60.45 58.25 55.22 55.23 50.34 C 52.26 55.13 49.46 60.01 46.76 64.95 C 37.21 65.11 27.67 64.90 18.12 65.04 C 13.69 58.57 10.24 51.50 6.14 44.83 C 5.30 43.24 4.13 41.75 3.81 39.94 C 4.06 38.36 5.07 37.04 5.80 35.65 C 9.97 28.80 13.67 21.66 18.06 14.94 M 16.73 39.98 C 18.68 44.80 21.84 49.12 24.34 53.70 C 29.48 53.64 34.63 53.91 39.77 53.64 C 43.13 49.53 45.13 44.40 48.11 39.98 C 45.82 36.23 43.72 32.37 41.52 28.56 C 40.86 27.70 40.41 26.07 39.02 26.30 C 34.14 26.17 29.25 26.32 24.36 26.29 C 21.84 30.85 18.79 35.20 16.73 39.98 M 63.75 37.69 C 63.05 38.85 62.18 40.37 63.25 41.63 C 65.57 45.76 68.02 49.81 70.35 53.94 C 75.55 53.92 80.75 53.91 85.95 53.94 C 88.70 49.38 91.32 44.73 94.05 40.15 C 91.38 35.71 89.09 31.05 86.23 26.74 C 81.04 25.90 75.63 26.66 70.35 26.41 C 68.07 30.12 65.96 33.93 63.75 37.69 Z" />
<path fill="#000000" opacity="1.00" d=" M 150.96 22.91 C 160.20 17.59 174.44 19.36 179.75 29.38 C 182.26 33.47 182.24 38.37 182.29 43.01 C 172.96 43.06 163.63 42.94 154.30 43.07 C 155.86 49.77 165.23 50.85 169.78 46.55 C 173.75 46.51 177.72 46.50 181.69 46.56 C 180.52 50.83 177.52 54.70 173.45 56.55 C 165.68 60.47 155.46 59.91 148.64 54.31 C 139.03 46.50 140.18 29.19 150.96 22.91 M 154.40 34.97 C 159.72 35.11 165.05 35.06 170.38 35.01 C 168.55 27.87 156.76 28.38 154.40 34.97 Z" />
<path fill="#000000" opacity="1.00" d=" M 206.22 30.17 C 211.19 20.09 227.17 16.00 235.00 24.97 C 234.99 23.64 234.99 22.32 235.00 20.99 C 239.00 20.98 243.00 20.98 247.01 20.99 C 247.03 34.33 247.01 47.66 247.02 61.00 C 247.03 64.46 246.64 68.53 243.68 70.81 C 240.56 72.99 236.60 73.06 232.95 73.10 C 224.59 73.17 216.23 73.12 207.87 73.13 C 207.86 69.76 207.85 66.39 207.92 63.03 C 216.54 62.83 225.20 63.41 233.79 62.75 C 235.24 60.17 234.41 57.01 234.68 54.19 C 229.62 60.50 220.12 59.89 213.48 56.65 C 204.17 51.89 201.49 39.05 206.22 30.17 M 224.23 30.19 C 216.40 30.86 214.53 41.70 219.26 46.76 C 223.17 49.88 229.50 49.80 232.91 45.97 C 235.58 42.20 235.61 36.69 233.07 32.83 C 230.80 30.67 227.32 29.66 224.23 30.19 Z" />
<path fill="#000000" opacity="1.00" d=" M 333.67 22.82 C 341.79 18.45 353.34 18.84 359.82 25.94 C 364.16 30.43 365.07 37.00 364.99 42.98 C 355.55 43.08 346.11 42.94 336.67 43.06 C 337.74 47.11 341.98 49.68 346.08 49.06 C 348.68 49.25 350.63 47.21 353.01 46.60 C 356.77 46.36 360.55 46.57 364.32 46.57 C 362.67 52.22 357.74 56.70 352.05 58.13 C 344.92 60.07 336.59 59.05 330.84 54.15 C 321.52 46.14 322.65 28.82 333.67 22.82 M 336.71 35.01 C 342.07 35.08 347.43 35.08 352.79 35.00 C 350.79 27.83 339.23 28.44 336.71 35.01 Z" />
<path fill="#000000" opacity="1.00" d=" M 186.99 20.99 C 191.15 20.98 195.31 20.98 199.47 20.99 C 199.47 33.33 199.47 45.67 199.47 58.01 C 195.31 58.02 191.15 58.02 186.99 58.01 C 186.98 45.67 186.98 33.33 186.99 20.99 Z" />
<path fill="#000000" opacity="1.00" d=" M 296.38 21.00 C 300.56 20.97 304.74 20.97 308.93 21.00 C 308.91 22.49 308.89 23.99 308.87 25.48 C 310.68 23.79 312.50 21.86 315.00 21.25 C 317.64 20.83 320.34 20.99 323.01 20.98 C 323.02 24.38 323.02 27.78 323.01 31.17 C 318.86 31.64 313.31 30.56 310.72 34.72 C 308.05 42.18 309.30 50.25 309.01 58.01 C 304.79 58.02 300.58 58.02 296.37 58.00 C 296.39 45.67 296.37 33.34 296.38 21.00 Z" />
</g>
</svg>
