<?xml version="1.0" encoding="UTF-8" ?>
<!DOCTYPE svg PUBLIC "-//W3C//DTD SVG 1.1//EN" "http://www.w3.org/Graphics/SVG/1.1/DTD/svg11.dtd">
<svg width="1080pt" height="1080pt" viewBox="0 0 1080 1080" version="1.1" xmlns="http://www.w3.org/2000/svg">
<g id="#00000000">
<path fill="#000000" opacity="1.00" d=" M 282.89 372.29 C 297.57 371.62 312.30 372.19 327.00 372.00 C 360.97 372.00 394.95 372.00 428.93 372.00 C 446.09 372.17 463.28 371.65 480.43 372.27 C 480.47 372.72 480.55 373.63 480.59 374.08 C 481.51 375.34 482.39 376.65 483.20 378.00 C 483.71 379.03 484.25 380.04 484.78 381.07 C 485.62 382.40 486.46 383.74 487.32 385.07 C 487.81 386.05 488.31 387.03 488.81 388.02 C 489.63 389.33 490.44 390.64 491.24 391.97 C 491.86 393.30 492.53 394.63 493.51 395.76 L 493.43 396.58 L 494.18 396.74 C 494.63 397.82 495.12 398.89 495.65 399.95 C 496.51 401.28 497.37 402.61 498.25 403.95 C 498.75 404.97 499.29 405.99 499.80 407.03 C 500.62 408.33 501.44 409.64 502.26 410.95 C 502.86 412.29 503.56 413.61 504.51 414.76 L 504.42 415.59 L 505.17 415.75 C 505.62 416.92 506.19 418.02 506.75 419.15 C 507.60 420.41 508.40 421.70 509.21 422.99 C 509.69 423.96 510.17 424.93 510.67 425.91 C 511.55 427.29 512.46 428.67 513.32 430.07 C 513.86 431.40 514.60 432.64 515.51 433.76 L 515.41 434.58 L 516.16 434.77 C 516.59 435.91 517.15 436.99 517.68 438.11 C 518.28 439.00 518.90 439.88 519.53 440.77 L 519.44 441.58 L 520.18 441.73 C 520.64 442.83 521.14 443.92 521.70 444.99 C 522.58 446.35 523.45 447.73 524.36 449.08 C 524.86 450.13 525.35 451.19 525.81 452.27 L 526.29 452.39 C 526.79 453.65 527.49 454.82 528.26 455.96 C 528.89 457.28 529.58 458.59 530.52 459.75 L 530.50 460.27 C 531.40 461.39 532.10 462.63 532.69 463.95 C 533.51 465.30 534.36 466.64 535.22 467.98 C 535.73 468.99 536.27 470.00 536.81 471.02 C 537.46 472.06 538.12 473.13 538.77 474.19 C 539.19 475.12 539.61 476.06 540.01 477.01 C 560.05 442.37 580.01 407.68 599.98 373.00 C 665.37 372.97 730.77 373.07 796.16 372.95 C 829.02 429.58 861.72 486.31 894.48 543.00 C 861.76 599.77 828.99 656.50 796.24 713.26 C 730.83 713.24 665.42 713.25 600.01 713.26 C 580.46 679.34 560.97 645.40 541.41 611.49 C 540.76 610.36 540.22 609.20 539.75 608.00 C 539.42 609.09 538.91 610.10 538.40 611.12 C 537.24 612.78 536.29 614.56 535.34 616.35 C 534.54 617.52 533.87 618.78 533.23 620.05 C 532.46 621.17 531.77 622.34 531.28 623.61 L 530.80 623.71 C 530.31 624.83 529.77 625.92 529.23 627.02 C 528.39 628.32 527.59 629.65 526.80 630.98 C 526.16 632.30 525.48 633.60 524.54 634.73 L 524.51 635.27 C 522.90 637.59 521.58 640.11 520.30 642.63 L 519.84 642.73 C 518.87 645.11 517.34 647.20 516.30 649.55 C 516.16 649.60 515.88 649.71 515.74 649.77 C 515.28 650.87 514.78 651.95 514.23 653.02 C 513.39 654.32 512.59 655.65 511.80 656.98 C 511.17 658.30 510.49 659.61 509.53 660.74 L 509.51 661.27 C 508.56 662.41 507.88 663.72 507.26 665.07 C 506.51 666.19 505.83 667.37 505.29 668.62 L 504.84 668.75 C 504.58 669.32 504.07 670.45 503.82 671.01 C 502.86 672.69 501.88 674.36 500.80 675.98 C 500.29 676.95 499.78 677.93 499.29 678.92 C 498.45 680.26 497.60 681.61 496.78 682.98 C 496.18 684.30 495.48 685.60 494.54 686.74 L 494.50 687.20 C 493.87 688.10 493.26 689.02 492.69 689.97 C 492.04 691.59 491.06 693.05 490.27 694.61 L 489.83 694.75 C 489.58 695.31 489.07 696.45 488.81 697.02 C 487.87 698.71 486.87 700.36 485.77 701.96 C 485.23 703.04 484.68 704.11 484.16 705.21 C 483.34 706.44 482.54 707.69 481.73 708.93 C 481.18 710.06 480.63 711.20 480.15 712.38 C 421.09 712.56 362.04 712.40 302.98 712.45 C 296.29 712.23 289.52 712.89 282.88 712.14 C 282.73 711.54 282.42 710.34 282.27 709.74 L 281.42 709.57 L 281.50 708.76 C 280.18 706.88 278.95 704.92 278.16 702.77 L 277.42 702.59 L 277.49 701.83 C 276.61 700.61 275.84 699.31 275.24 697.95 C 274.66 697.03 274.08 696.14 273.47 695.26 L 273.55 694.43 L 272.81 694.29 C 272.32 693.16 271.79 692.06 271.25 690.97 C 270.39 689.63 269.56 688.29 268.73 686.96 C 268.22 685.96 267.72 684.97 267.22 683.99 C 266.40 682.68 265.60 681.37 264.76 680.09 C 264.22 678.97 263.67 677.87 263.18 676.75 L 262.71 676.61 C 262.25 675.33 261.53 674.17 260.75 673.09 C 260.18 671.98 259.62 670.89 259.16 669.75 L 258.42 669.58 L 258.52 668.76 C 257.88 667.89 257.28 667.01 256.70 666.12 C 256.19 664.70 255.40 663.43 254.48 662.26 L 254.49 661.75 C 253.56 660.60 252.84 659.30 252.23 657.98 C 251.41 656.60 250.56 655.26 249.70 653.93 C 249.20 652.93 248.71 651.94 248.23 650.96 C 247.64 650.06 247.05 649.16 246.46 648.28 L 246.53 647.46 L 245.79 647.31 C 245.30 646.17 244.75 645.08 244.21 643.99 C 243.37 642.68 242.57 641.36 241.73 640.08 C 241.19 638.96 240.65 637.86 240.16 636.74 L 239.43 636.58 L 239.50 635.76 C 237.93 633.74 237.02 631.32 235.50 629.27 L 235.49 628.74 C 234.52 627.62 233.82 626.31 233.23 624.98 C 232.41 623.62 231.58 622.28 230.74 620.95 C 230.23 619.95 229.72 618.96 229.22 617.98 C 228.40 616.66 227.60 615.35 226.78 614.05 C 226.25 613.02 225.71 612.01 225.19 610.99 C 224.36 609.66 223.55 608.31 222.70 607.00 C 222.14 605.94 221.63 604.85 221.17 603.75 L 220.43 603.58 L 220.52 602.77 C 219.89 601.89 219.28 601.00 218.71 600.10 C 218.17 598.71 217.41 597.44 216.50 596.28 L 216.50 595.75 C 215.54 594.61 214.84 593.30 214.23 591.97 C 213.43 590.64 212.62 589.33 211.79 588.04 C 211.27 587.00 210.74 585.99 210.22 584.97 C 209.40 583.66 208.60 582.34 207.79 581.04 C 207.26 580.01 206.73 578.99 206.21 577.98 C 205.39 576.68 204.57 575.38 203.76 574.08 C 203.13 572.80 202.48 571.56 201.72 570.37 C 201.09 569.25 200.43 568.15 199.77 567.07 C 199.11 565.74 198.41 564.43 197.50 563.27 L 197.50 562.75 C 196.89 561.88 196.29 561.01 195.73 560.12 C 195.13 558.75 194.40 557.45 193.48 556.28 L 193.43 555.85 C 192.46 554.31 191.59 552.71 190.55 551.23 L 190.54 550.71 C 189.93 549.83 189.35 548.94 188.79 548.05 C 188.25 547.03 187.70 546.02 187.08 545.07 C 185.82 543.26 185.95 540.92 187.25 539.19 C 187.90 538.12 188.55 537.06 189.22 536.01 C 189.73 535.03 190.24 534.04 190.74 533.06 C 191.57 531.74 192.41 530.41 193.27 529.12 C 193.81 527.99 194.40 526.90 194.83 525.74 L 195.31 525.60 C 195.86 524.36 196.50 523.17 197.29 522.08 C 197.85 520.99 198.42 519.90 198.85 518.76 L 199.32 518.60 C 200.11 517.04 200.95 515.51 201.80 513.98 C 202.61 512.66 203.41 511.33 204.22 510.01 C 204.74 508.99 205.28 507.98 205.81 506.98 C 206.88 505.35 207.87 503.69 208.83 502.01 C 209.08 501.45 209.60 500.33 209.85 499.77 L 210.24 499.57 C 211.11 498.04 212.09 496.57 212.71 494.92 C 213.44 493.84 214.13 492.75 214.75 491.62 C 216.05 489.53 217.11 487.29 218.53 485.28 L 218.53 484.76 C 219.47 483.61 220.17 482.31 220.81 480.99 C 221.62 479.66 222.42 478.34 223.24 477.04 C 223.79 475.94 224.33 474.84 224.83 473.73 L 225.29 473.59 C 226.35 471.24 227.90 469.13 228.84 466.72 L 229.61 466.59 L 229.53 465.76 C 230.45 464.60 231.24 463.32 231.75 461.92 C 232.33 461.02 232.93 460.13 233.55 459.27 L 233.54 458.74 C 234.51 457.63 235.18 456.32 235.80 455.00 C 236.62 453.64 237.45 452.29 238.31 450.96 C 238.86 449.91 239.36 448.83 239.82 447.75 L 240.30 447.57 C 241.36 445.23 242.87 443.13 243.84 440.74 L 244.32 440.62 C 245.08 439.02 246.01 437.52 246.76 435.93 C 247.32 435.02 247.92 434.13 248.54 433.26 L 248.53 432.74 C 249.50 431.63 250.18 430.31 250.80 428.99 C 251.60 427.66 252.40 426.33 253.23 425.03 C 253.78 423.98 254.26 422.91 254.68 421.81 C 254.83 421.74 255.14 421.61 255.30 421.55 C 255.85 420.33 256.47 419.15 257.22 418.05 C 257.80 417.00 258.30 415.92 258.73 414.80 C 258.88 414.74 259.18 414.62 259.33 414.55 C 260.58 412.04 261.86 409.54 263.49 407.25 L 263.54 406.74 C 264.44 405.57 265.14 404.27 265.77 402.95 C 266.59 401.64 267.40 400.32 268.23 399.02 C 268.77 397.95 269.27 396.86 269.73 395.76 C 269.87 395.71 270.15 395.61 270.29 395.56 C 271.30 393.21 272.89 391.18 273.77 388.78 C 273.91 388.72 274.18 388.61 274.32 388.55 C 275.56 386.04 276.85 383.54 278.47 381.25 L 278.53 380.75 C 279.46 379.59 280.17 378.29 280.81 376.97 C 281.10 376.50 281.67 375.55 281.95 375.08 C 282.46 374.23 282.78 373.30 282.89 372.29 M 323.35 450.40 C 321.45 453.54 319.80 456.84 317.77 459.92 C 316.94 461.47 316.11 463.03 315.32 464.60 L 314.88 464.76 C 313.94 467.08 312.54 469.16 311.34 471.35 C 310.81 472.20 310.29 473.06 309.77 473.93 C 308.96 475.49 308.10 477.04 307.28 478.60 L 306.84 478.73 C 305.95 481.17 304.34 483.24 303.29 485.60 L 302.83 485.71 C 301.98 488.17 300.34 490.24 299.27 492.59 L 298.82 492.71 C 297.86 495.33 296.24 497.62 294.80 499.98 C 293.63 502.41 292.22 504.70 290.81 506.99 C 290.19 508.24 289.52 509.48 288.77 510.67 C 288.13 511.78 287.47 512.88 286.81 513.98 C 285.58 516.37 284.20 518.68 282.77 520.96 C 282.17 522.29 281.50 523.62 280.52 524.73 L 280.50 525.25 C 279.88 526.11 279.30 527.00 278.76 527.92 C 277.99 529.51 277.10 531.04 276.28 532.61 L 275.84 532.72 C 274.97 535.06 273.58 537.15 272.24 539.25 C 269.21 543.15 273.58 546.72 274.85 550.29 L 275.28 550.40 C 276.55 552.92 277.87 555.43 279.48 557.77 L 279.52 558.28 C 280.51 559.48 281.21 560.87 281.87 562.30 C 282.66 563.52 283.44 564.75 284.23 565.99 C 284.75 567.00 285.29 568.01 285.82 569.04 C 286.64 570.39 287.47 571.74 288.29 573.10 C 288.91 574.39 289.63 575.64 290.50 576.79 L 290.52 577.29 C 292.00 579.35 292.96 581.73 294.49 583.77 L 294.53 584.27 C 295.44 585.44 296.13 586.74 296.79 588.08 C 297.60 589.37 298.41 590.69 299.23 591.99 C 299.74 593.00 300.28 594.02 300.80 595.05 C 301.62 596.35 302.42 597.67 303.24 598.99 C 303.76 599.99 304.30 601.00 304.83 602.03 C 305.66 603.36 306.49 604.70 307.29 606.06 C 307.89 607.36 308.59 608.64 309.49 609.78 L 309.53 610.27 C 310.40 611.47 311.12 612.76 311.78 614.10 C 312.59 615.40 313.40 616.71 314.20 618.04 C 315.20 619.92 316.25 621.79 317.36 623.63 C 318.29 625.34 319.28 627.02 320.27 628.71 C 320.91 629.80 321.55 630.90 322.20 632.01 C 322.85 633.26 323.56 634.49 324.33 635.69 C 324.88 636.68 325.42 637.71 325.87 638.77 C 362.57 638.60 399.28 638.78 435.99 638.69 C 439.05 638.89 439.23 634.79 440.77 632.94 C 442.21 630.72 443.52 628.41 444.73 626.05 C 446.38 623.54 447.77 620.87 449.29 618.29 C 450.65 615.96 451.96 613.62 453.32 611.31 C 454.20 609.85 455.02 608.36 455.79 606.85 C 457.26 604.63 458.59 602.32 459.78 599.95 C 461.44 597.49 462.74 594.83 464.26 592.30 C 465.65 589.99 466.95 587.61 468.32 585.29 C 469.80 582.73 471.28 580.16 472.74 577.59 C 473.49 576.48 474.10 575.28 474.69 574.08 C 476.14 571.69 477.79 569.39 478.78 566.75 C 478.90 566.70 479.14 566.59 479.26 566.54 C 479.84 565.31 480.49 564.13 481.19 562.99 C 481.85 561.75 482.53 560.52 483.29 559.34 C 484.63 557.01 485.92 554.65 487.31 552.34 C 488.68 549.97 489.93 547.51 491.48 545.25 L 491.60 544.87 C 493.64 542.80 492.23 539.96 490.48 538.28 L 490.57 537.44 L 489.84 537.29 C 489.42 536.11 488.83 535.00 488.28 533.91 C 487.47 532.81 486.80 531.63 486.29 530.39 L 485.85 530.27 C 485.02 528.12 483.78 526.18 482.51 524.28 L 482.50 523.77 C 481.90 522.90 481.31 522.02 480.75 521.14 C 480.12 519.77 479.38 518.46 478.48 517.26 L 478.51 516.85 C 476.91 514.48 475.49 512.01 474.27 509.44 L 473.83 509.30 C 473.34 508.16 472.78 507.07 472.23 505.98 C 471.40 504.68 470.61 503.36 469.82 502.05 C 469.28 501.02 468.74 500.01 468.22 498.99 C 467.41 497.68 466.61 496.38 465.79 495.09 C 465.26 494.06 464.72 493.04 464.21 492.02 C 463.41 490.70 462.60 489.38 461.78 488.09 C 461.24 487.06 460.70 486.05 460.19 485.03 C 459.37 483.65 458.51 482.30 457.68 480.94 C 457.09 479.63 456.41 478.38 455.52 477.27 L 455.45 476.86 C 455.04 476.19 454.65 475.53 454.29 474.86 C 453.43 473.35 452.55 471.86 451.69 470.37 C 450.07 467.55 448.52 464.70 446.78 461.95 C 446.26 460.96 445.73 459.97 445.20 458.99 C 444.52 457.90 443.88 456.78 443.27 455.66 C 441.98 453.34 440.54 451.10 439.35 448.73 C 438.68 447.61 438.10 446.26 436.63 446.06 L 436.62 445.62 C 399.95 445.73 363.27 445.82 326.60 445.57 C 325.00 446.79 324.23 448.66 323.35 450.40 M 642.23 446.57 C 624.18 478.45 605.84 510.16 587.59 541.93 C 587.16 542.76 587.18 543.60 587.65 544.43 C 605.92 576.14 624.39 607.75 642.39 639.61 C 679.51 639.56 716.64 639.50 753.77 639.64 C 772.39 607.47 790.94 575.25 809.47 543.02 C 790.84 510.95 772.58 478.67 753.99 446.57 C 716.74 446.57 679.48 446.56 642.23 446.57 Z" />
</g>
</svg>
