<?xml version="1.0" encoding="UTF-8" ?>
<!DOCTYPE svg PUBLIC "-//W3C//DTD SVG 1.1//EN" "http://www.w3.org/Graphics/SVG/1.1/DTD/svg11.dtd">
<svg width="447pt" height="78pt" viewBox="0 0 447 78" version="1.1" xmlns="http://www.w3.org/2000/svg">
<g id="#fdfdfdff">
<path fill="#fdfdfd" opacity="1.00" d=" M 189.42 5.35 C 193.38 2.77 199.24 5.32 199.96 10.00 C 201.29 15.34 194.52 20.25 189.88 17.23 C 185.21 15.02 185.15 8.02 189.42 5.35 Z" />
<path fill="#fdfdfd" opacity="1.00" d=" M 252.53 5.17 C 256.54 5.18 260.56 5.16 264.58 5.19 C 264.65 11.76 264.53 18.34 264.65 24.92 C 269.18 19.58 277.29 19.47 283.47 21.47 C 289.20 23.26 291.90 29.51 292.21 35.08 C 292.62 42.71 292.30 50.36 292.40 58.00 C 288.37 58.00 284.35 58.00 280.32 57.99 C 280.12 50.63 280.80 43.21 279.87 35.88 C 279.82 33.85 278.45 32.29 277.44 30.66 C 274.62 29.74 271.40 29.12 268.74 30.83 C 265.52 33.11 264.78 37.32 264.66 41.00 C 264.51 46.66 264.64 52.33 264.61 57.99 C 260.59 58.00 256.57 58.00 252.56 58.00 C 252.55 40.39 252.57 22.78 252.53 5.17 Z" />
<path fill="#fdfdfd" opacity="1.00" d=" M 397.60 5.17 C 401.70 5.17 405.80 5.17 409.91 5.17 C 409.92 22.78 409.91 40.39 409.91 58.00 C 405.88 58.00 401.85 58.00 397.81 57.99 C 397.82 56.60 397.85 55.21 397.88 53.82 C 394.61 57.83 389.15 59.28 384.17 58.51 C 377.66 58.24 371.32 54.29 368.78 48.21 C 366.27 42.51 366.38 35.68 369.22 30.13 C 372.41 24.51 378.63 20.69 385.11 20.52 C 389.63 20.00 394.53 21.12 397.63 24.65 C 397.58 18.16 397.62 11.66 397.60 5.17 M 386.14 30.16 C 379.72 31.36 378.02 39.39 380.50 44.60 C 383.48 50.94 394.70 50.77 397.04 43.98 C 398.19 40.56 398.08 36.59 396.46 33.33 C 394.21 30.08 389.76 29.55 386.14 30.16 Z" />
<path fill="#fdfdfd" opacity="1.00" d=" M 152.02 22.63 C 160.49 18.65 172.49 19.53 178.32 27.56 C 181.63 31.90 182.10 37.56 182.14 42.83 C 172.75 42.84 163.36 42.82 153.97 42.84 C 155.22 49.84 165.08 51.28 169.76 46.85 C 173.69 46.81 177.63 46.81 181.56 46.85 C 179.83 51.03 176.90 54.99 172.57 56.70 C 164.77 60.08 154.82 59.39 148.25 53.71 C 139.20 45.46 140.85 28.26 152.02 22.63 M 153.99 35.21 C 159.57 35.60 165.17 35.33 170.76 35.38 C 169.30 27.50 156.16 27.93 153.99 35.21 Z" />
<path fill="#fdfdfd" opacity="1.00" d=" M 187.09 21.00 C 191.11 21.00 195.14 21.00 199.17 21.00 C 199.17 33.33 199.17 45.67 199.17 58.00 C 195.14 58.00 191.11 58.00 187.09 58.00 C 187.09 45.67 187.09 33.33 187.09 21.00 Z" />
<path fill="#fdfdfd" opacity="1.00" d=" M 210.87 24.85 C 217.49 19.36 229.14 18.18 235.07 25.29 C 235.07 24.22 235.09 22.07 235.10 21.00 C 239.03 21.00 242.97 21.00 246.91 21.00 C 246.89 33.70 246.95 46.40 246.89 59.10 C 246.65 63.00 246.86 67.69 243.67 70.54 C 240.56 72.71 236.57 72.74 232.93 73.01 C 224.61 73.09 216.29 73.01 207.96 73.04 C 207.96 69.80 207.96 66.56 207.95 63.32 C 216.01 63.28 224.08 63.40 232.14 63.27 C 233.23 63.31 234.09 62.87 234.71 61.95 C 235.00 59.24 234.84 56.52 234.90 53.80 C 226.78 62.97 209.34 58.67 205.56 47.24 C 202.87 39.61 204.36 30.11 210.87 24.85 M 223.17 30.18 C 215.81 31.52 214.45 41.94 219.06 46.80 C 223.61 50.85 232.98 49.80 234.62 43.25 C 235.24 39.78 235.47 35.78 233.29 32.79 C 230.86 29.89 226.65 29.60 223.17 30.18 Z" />
<path fill="#fdfdfd" opacity="1.00" d=" M 296.75 21.00 C 300.67 21.00 304.60 21.00 308.52 21.00 C 308.53 22.78 308.55 24.56 308.58 26.34 C 311.71 21.53 317.64 20.69 322.91 20.97 C 322.91 24.33 322.91 27.70 322.91 31.06 C 318.59 31.12 313.45 30.54 310.38 34.28 C 308.14 41.97 309.03 50.10 308.83 58.00 C 304.80 58.00 300.77 58.00 296.74 58.00 C 296.77 45.67 296.74 33.33 296.75 21.00 Z" />
<path fill="#fdfdfd" opacity="1.00" d=" M 331.57 24.60 C 337.11 20.19 344.80 19.55 351.49 21.18 C 356.62 22.49 361.02 26.33 362.92 31.28 C 364.60 34.89 364.46 38.95 364.67 42.83 C 355.29 42.84 345.92 42.82 336.54 42.84 C 337.60 49.74 347.53 51.40 352.01 46.87 C 356.07 46.79 360.13 46.82 364.19 46.85 C 362.16 51.54 358.52 55.75 353.55 57.37 C 346.11 59.80 337.06 59.18 330.96 53.89 C 322.58 46.54 322.73 31.53 331.57 24.60 M 336.53 35.35 C 342.04 35.43 347.55 35.43 353.06 35.35 C 351.78 27.52 338.31 27.86 336.53 35.35 Z" />
</g>
<g id="#ffffffff">
<path fill="#ffffff" opacity="1.00" d=" M 17.90 15.30 C 27.43 15.23 36.96 15.25 46.49 15.29 C 49.24 20.20 52.14 25.04 54.91 29.94 C 55.18 29.82 55.71 29.57 55.98 29.45 C 58.41 24.67 61.33 20.16 63.86 15.44 C 73.38 15.38 82.90 15.44 92.42 15.41 C 97.21 23.63 101.97 31.87 106.72 40.12 C 102.03 48.29 97.15 56.35 92.68 64.64 C 83.09 64.90 73.50 64.70 63.91 64.75 C 60.93 59.72 58.17 54.57 55.08 49.61 C 52.40 54.70 49.29 59.54 46.61 64.63 C 37.05 64.75 27.49 64.68 17.93 64.67 C 13.20 56.43 8.46 48.20 3.72 39.98 C 8.46 31.76 13.25 23.57 17.90 15.30 M 17.11 38.09 C 15.05 40.47 17.99 42.81 18.92 44.98 C 20.99 47.91 22.04 51.73 24.76 54.10 C 29.66 54.29 34.57 53.96 39.47 54.26 C 39.82 53.98 40.52 53.40 40.87 53.11 C 43.41 48.77 45.82 44.34 48.44 40.04 C 45.83 35.57 43.31 31.03 40.69 26.57 C 40.35 26.40 39.69 26.06 39.35 25.89 C 34.32 26.02 29.07 25.39 24.16 26.21 C 21.51 29.97 19.56 34.19 17.11 38.09 M 69.91 26.22 C 67.56 30.52 65.17 34.80 62.57 38.95 C 62.50 39.38 62.36 40.25 62.29 40.69 C 65.00 45.12 67.54 49.66 70.12 54.17 C 75.48 54.23 80.84 54.16 86.20 54.22 C 89.03 49.56 91.63 44.78 94.41 40.09 C 91.72 35.50 89.06 30.89 86.48 26.24 C 80.96 26.09 75.44 26.11 69.91 26.22 Z" />
</g>
</svg>
